/* XPM */
static char * colours2_xpm[] = {
"16 16 17 1",
" 	c None",
".	c #7A7A1E",
"+	c #FF1E1E",
"@	c #F11E1E",
"#	c #DD1E1E",
"$	c #8E7256",
"%	c #54CD54",
"&	c #4FCC4F",
"*	c #24C824",
"=	c #34C334",
"-	c #29BB29",
";	c #31B031",
">	c #5D5DE8",
",	c #3F3FD4",
"'	c #3434C8",
")	c #2D2DCD",
"!	c #2121C4",
"                ",
" ........       ",
" .++@@@#.       ",
" .+@@@##$       ",
" .@@........    ",
" .@#.%&&**=.    ",
" $##.&&**=-$    ",
" $$$.&**=--$    ",
"    .**=--;$    ",
"    .*=-........",
"    $=-;.>>,,''.",
"    $$$$.>,,'''$",
"        .,,''))$",
"        .,''))!$",
"        $'')!!!$",
"        $$$$$$$$"};
