/* XPM */
static char * dndfile_xpm[] = {
"32 32 649 2",
"  	c None",
". 	c #4D4D4D",
"+ 	c #7A7A7A",
"@ 	c #797979",
"# 	c #787878",
"$ 	c #777777",
"% 	c #767676",
"& 	c #757575",
"* 	c #747575",
"= 	c #747474",
"- 	c #737373",
"; 	c #727272",
"> 	c #717171",
", 	c #707070",
"' 	c #6F6F6F",
") 	c #6E6E6E",
"! 	c #6E6D6E",
"~ 	c #6D6D6D",
"{ 	c #6C6C6C",
"] 	c #6A6B6B",
"^ 	c #212121",
"/ 	c #FAFAF9",
"( 	c #FAF9F9",
"_ 	c #F8F8F8",
": 	c #F7F7F7",
"< 	c #F5F5F5",
"[ 	c #F4F4F4",
"} 	c #F2F2F2",
"| 	c #F0F1F0",
"1 	c #EFEFEF",
"2 	c #EEEEEE",
"3 	c #ECECEC",
"4 	c #EAEBEA",
"5 	c #E9E9E9",
"6 	c #E8E7E7",
"7 	c #E7E6E6",
"8 	c #E5E5E5",
"9 	c #E3E4E3",
"0 	c #E1E2E2",
"a 	c #E0E0E1",
"b 	c #DEDEDF",
"c 	c #DDDDDD",
"d 	c #DCDCDC",
"e 	c #DADADA",
"f 	c #D9D9D9",
"g 	c #AFB0B0",
"h 	c #2A2A2A",
"i 	c #FAFAFA",
"j 	c #FBFAFA",
"k 	c #F9F9F9",
"l 	c #F6F6F6",
"m 	c #F5F4F5",
"n 	c #F3F4F4",
"o 	c #F1F1F1",
"p 	c #F0F0F0",
"q 	c #EDEEEE",
"r 	c #EBEBEB",
"s 	c #EAEAE9",
"t 	c #E7E8E7",
"u 	c #E6E6E6",
"v 	c #E4E4E4",
"w 	c #E3E3E3",
"x 	c #E1E2E1",
"y 	c #E0E1E0",
"z 	c #C8C8C8",
"A 	c #B9B9B9",
"B 	c #292929",
"C 	c #F9F8F9",
"D 	c #F9F8F8",
"E 	c #F3F2F2",
"F 	c #E5E6E5",
"G 	c #C2C1BF",
"H 	c #83807C",
"I 	c #686660",
"J 	c #625E59",
"K 	c #66625F",
"L 	c #6C6966",
"M 	c #898784",
"N 	c #BFBFBD",
"O 	c #D2D2D1",
"P 	c #E2E2E2",
"Q 	c #E1E0E1",
"R 	c #E0DFDF",
"S 	c #C9C9C9",
"T 	c #D0D0D0",
"U 	c #C1C1C1",
"V 	c #2F2F2F",
"W 	c #F8F7F8",
"X 	c #F7F6F6",
"Y 	c #F3F3F3",
"Z 	c #CDCCCB",
"` 	c #77746E",
" .	c #4B4A3F",
"..	c #4C4D44",
"+.	c #383D37",
"@.	c #22231E",
"#.	c #3D3E3D",
"$.	c #3F4341",
"%.	c #383B32",
"&.	c #323128",
"*.	c #524F45",
"=.	c #8D8B85",
"-.	c #C6C6C5",
";.	c #E1E1E1",
">.	c #DFDFDE",
",.	c #DADADB",
"'.	c #C0C0BF",
").	c #282828",
"!.	c #797878",
"~.	c #B6B4B3",
"{.	c #4F5047",
"].	c #2D2F25",
"^.	c #2D3027",
"/.	c #282B1F",
"(.	c #1E2117",
"_.	c #161711",
":.	c #1A1B14",
"<.	c #1E1F19",
"[.	c #1C1C16",
"}.	c #212520",
"|.	c #444742",
"1.	c #42413D",
"2.	c #4F4C46",
"3.	c #908D8A",
"4.	c #D4D3D3",
"5.	c #DEDDDD",
"6.	c #CECECE",
"7.	c #D7D8D8",
"8.	c #D9D9D8",
"9.	c #C5C5C5",
"0.	c #303030",
"a.	c #F6F5F5",
"b.	c #ACAAA7",
"c.	c #57524A",
"d.	c #575E54",
"e.	c #272B20",
"f.	c #1A1A0F",
"g.	c #1E1E13",
"h.	c #1A1B13",
"i.	c #151611",
"j.	c #181813",
"k.	c #161712",
"l.	c #15180F",
"m.	c #1F2119",
"n.	c #343630",
"o.	c #242620",
"p.	c #333229",
"q.	c #7A7974",
"r.	c #CBCBCB",
"s.	c #C8C7C8",
"t.	c #888888",
"u.	c #7E7E7E",
"v.	c #8E8E8E",
"w.	c #5D5D5D",
"x.	c #F5F6F6",
"y.	c #F4F5F5",
"z.	c #F3F4F3",
"A.	c #B7B5B4",
"B.	c #453E34",
"C.	c #54594D",
"D.	c #2F3425",
"E.	c #222318",
"F.	c #1E2016",
"G.	c #474740",
"H.	c #666461",
"I.	c #6F6D6C",
"J.	c #6E6D6C",
"K.	c #6D6B69",
"L.	c #686360",
"M.	c #544F4A",
"N.	c #312D23",
"O.	c #222118",
"P.	c #23231A",
"Q.	c #43483F",
"R.	c #393D35",
"S.	c #6E6D64",
"T.	c #CCCCCC",
"U.	c #CDCDCD",
"V.	c #AEAEAF",
"W.	c #AAAAAA",
"X.	c #A2A1A2",
"Y.	c #939393",
"Z.	c #505050",
"`.	c #777676",
" +	c #F3F3F4",
".+	c #49453D",
"++	c #41423E",
"@+	c #26291F",
"#+	c #2B2D1D",
"$+	c #3C3930",
"%+	c #939391",
"&+	c #CFCFCE",
"*+	c #E7E6E7",
"=+	c #E3E3E2",
"-+	c #D2D2D2",
";+	c #B5B4B3",
">+	c #999794",
",+	c #4B4740",
"'+	c #363527",
")+	c #464948",
"!+	c #3B3E35",
"~+	c #8A8983",
"{+	c #D7D7D7",
"]+	c #D5D4D5",
"^+	c #D4D4D4",
"/+	c #666666",
"(+	c #F1F0F0",
"_+	c #6C6864",
":+	c #3A3831",
"<+	c #636661",
"[+	c #2A291F",
"}+	c #75746F",
"|+	c #D8D8D8",
"1+	c #E8E8E8",
"2+	c #E0DFE0",
"3+	c #DEDEDE",
"4+	c #DADBDB",
"5+	c #A4A3A1",
"6+	c #4D4A43",
"7+	c #222116",
"8+	c #35372C",
"9+	c #A2A19E",
"0+	c #D6D6D6",
"a+	c #D5D5D5",
"b+	c #D3D3D4",
"c+	c #C6C6C6",
"d+	c #626363",
"e+	c #F2F1F2",
"f+	c #413B33",
"g+	c #4F4F4D",
"h+	c #4D4D43",
"i+	c #534F48",
"j+	c #DEDEDD",
"k+	c #E9EAE9",
"l+	c #E0E0E0",
"m+	c #DBDBDB",
"n+	c #BDBCBB",
"o+	c #554E44",
"p+	c #2C2C22",
"q+	c #615E58",
"r+	c #D3D3D2",
"s+	c #626262",
"t+	c #F0EFEF",
"u+	c #A19F9D",
"v+	c #2A2921",
"w+	c #33352E",
"x+	c #474236",
"y+	c #B5B3B2",
"z+	c #E8E9E8",
"A+	c #E7E7E7",
"B+	c #E5E4E5",
"C+	c #E4E3E4",
"D+	c #E3E2E3",
"E+	c #DFDFDF",
"F+	c #DEDDDE",
"G+	c #DCDDDC",
"H+	c #85827F",
"I+	c #2E291E",
"J+	c #53524C",
"K+	c #D3D3D3",
"L+	c #C3C3C3",
"M+	c #616161",
"N+	c #928D88",
"O+	c #2E2E28",
"P+	c #595A55",
"Q+	c #74716E",
"R+	c #E4E4E3",
"S+	c #E2E2E3",
"T+	c #D5D5D4",
"U+	c #A8A6A4",
"V+	c #959392",
"W+	c #83827F",
"X+	c #858280",
"Y+	c #A9A8A7",
"Z+	c #332C25",
"`+	c #57574B",
" @	c #D4D3D4",
".@	c #D2D1D2",
"+@	c #D1D1D1",
"@@	c #C2C2C2",
"#@	c #747574",
"$@	c #EDEDED",
"%@	c #EEEFEE",
"&@	c #938E8A",
"*@	c #363631",
"=@	c #686C68",
"-@	c #A3A2A1",
";@	c #E8E8E7",
">@	c #E3E4E4",
",@	c #E2E3E3",
"'@	c #E1E1E0",
")@	c #A4A19E",
"!@	c #46392E",
"~@	c #4D423F",
"{@	c #685F5B",
"]@	c #6A655C",
"^@	c #6A6960",
"/@	c #605A55",
"(@	c #4F4F46",
"_@	c #B5B5B5",
":@	c #EBECEC",
"<@	c #A9A8A6",
"[@	c #3F4036",
"}@	c #5F625E",
"|@	c #BFBFBF",
"1@	c #E7E8E8",
"2@	c #C4C4C3",
"3@	c #AEABAA",
"4@	c #76716E",
"5@	c #372E25",
"6@	c #514641",
"7@	c #79706D",
"8@	c #A5A9A5",
"9@	c #7A7E77",
"0@	c #5C5A56",
"a@	c #433F39",
"b@	c #CFCFCF",
"c@	c #C0C0C0",
"d@	c #606060",
"e@	c #EAEAEB",
"f@	c #4D483C",
"g@	c #49453A",
"h@	c #D4D4D3",
"i@	c #E2E1E2",
"j@	c #ABA9A9",
"k@	c #5E5952",
"l@	c #473F3B",
"m@	c #574F4C",
"n@	c #85817F",
"o@	c #DDDDDE",
"p@	c #635F5B",
"q@	c #2D2823",
"r@	c #524845",
"s@	c #746E6E",
"t@	c #C8D1CE",
"u@	c #9BA7A4",
"v@	c #65615D",
"w@	c #46423C",
"x@	c #91908B",
"y@	c #737272",
"z@	c #454139",
"A@	c #393427",
"B@	c #B2B1B0",
"C@	c #9E9D99",
"D@	c #363123",
"E@	c #5E554B",
"F@	c #78645E",
"G@	c #574749",
"H@	c #5F5252",
"I@	c #8E8A89",
"J@	c #575451",
"K@	c #24201C",
"L@	c #534848",
"M@	c #696262",
"N@	c #D5DCD8",
"O@	c #C6D0C9",
"P@	c #6F6E69",
"Q@	c #413D35",
"R@	c #808179",
"S@	c #CCCDCD",
"T@	c #BEBDBD",
"U@	c #5F5F5F",
"V@	c #EAEBEB",
"W@	c #EAEAEA",
"X@	c #5C5954",
"Y@	c #252419",
"Z@	c #75706A",
"`@	c #656159",
" #	c #353122",
".#	c #655D50",
"+#	c #B6A19C",
"@#	c #7F7071",
"##	c #5C4F51",
"$#	c #685C58",
"%#	c #555351",
"&#	c #201E1A",
"*#	c #544949",
"=#	c #5E5354",
"-#	c #DADFDB",
";#	c #CFDAD4",
">#	c #8C8A80",
",#	c #544C43",
"'#	c #71766D",
")#	c #C1C1C0",
"!#	c #BCBCBC",
"~#	c #5E5E5E",
"{#	c #E9E9E8",
"]#	c #9D9B98",
"^#	c #282219",
"/#	c #424136",
"(#	c #A3A19E",
"_#	c #5F5B54",
":#	c #2B2B1F",
"<#	c #5D584E",
"[#	c #8C8F87",
"}#	c #C4CBC7",
"|#	c #726D6D",
"1#	c #6A5C5C",
"2#	c #706866",
"3#	c #53524F",
"4#	c #1D1C19",
"5#	c #514847",
"6#	c #594F52",
"7#	c #DDDFDF",
"8#	c #CCD8D1",
"9#	c #97978F",
"0#	c #55544C",
"a#	c #636963",
"b#	c #BBBCBB",
"c#	c #BBBBBB",
"d#	c #E8E9E9",
"e#	c #CFCECD",
"f#	c #59544E",
"g#	c #343025",
"h#	c #56544B",
"i#	c #D1D1D0",
"j#	c #64625C",
"k#	c #24261B",
"l#	c #474138",
"m#	c #84867E",
"n#	c #BAC0BE",
"o#	c #B7B4B5",
"p#	c #6D6162",
"q#	c #6B6061",
"r#	c #989696",
"s#	c #52514F",
"t#	c #191B16",
"u#	c #4B4543",
"v#	c #5A5253",
"w#	c #E1E3E2",
"x#	c #C4CCC5",
"y#	c #999A92",
"z#	c #50524C",
"A#	c #606564",
"B#	c #CACACA",
"C#	c #BABABA",
"D#	c #E9E9EA",
"E#	c #E6E5E5",
"F#	c #C3C2C2",
"G#	c #4F493C",
"H#	c #3B3829",
"I#	c #726C66",
"J#	c #7B7977",
"K#	c #29271D",
"L#	c #2C2B22",
"M#	c #71716A",
"N#	c #A6B1AD",
"O#	c #DEE0E0",
"P#	c #8A8687",
"Q#	c #6C6164",
"R#	c #736C6C",
"S#	c #43403E",
"T#	c #181814",
"U#	c #453E3C",
"V#	c #52484A",
"W#	c #C8CACA",
"X#	c #A9ACAA",
"Y#	c #93958D",
"Z#	c #5B5753",
"`#	c #676560",
" $	c #C2C2C1",
".$	c #E4E3E3",
"+$	c #AEACAA",
"@$	c #413C2E",
"#$	c #484339",
"$$	c #5A5651",
"%$	c #2B2A23",
"&$	c #272820",
"*$	c #3D3C33",
"=$	c #939C96",
"-$	c #C4CDCA",
";$	c #746B6E",
">$	c #675C5E",
",$	c #312B2B",
"'$	c #181613",
")$	c #3D3734",
"!$	c #4C3F43",
"~$	c #ADADAE",
"{$	c #91928E",
"]$	c #898A82",
"^$	c #7A7874",
"/$	c #C7C6C6",
"($	c #B8B7B8",
"_$	c #DBDCDC",
":$	c #7E7974",
"<$	c #363121",
"[$	c #403F34",
"}$	c #32322F",
"|$	c #292A25",
"1$	c #2E2D25",
"2$	c #5F5F57",
"3$	c #A4A8A8",
"4$	c #D5D7D7",
"5$	c #918D8E",
"6$	c #6B5B5D",
"7$	c #453B3B",
"8$	c #151313",
"9$	c #38322E",
"0$	c #4A3A3A",
"a$	c #959290",
"b$	c #828076",
"c$	c #847E75",
"d$	c #A2A09D",
"e$	c #CACAC9",
"f$	c #C7C7C7",
"g$	c #B7B6B7",
"h$	c #5D5C5C",
"i$	c #534D40",
"j$	c #373224",
"k$	c #323634",
"l$	c #282B2A",
"m$	c #2C2D29",
"n$	c #37352C",
"o$	c #6D6C64",
"p$	c #A1A4A4",
"q$	c #C0C1BD",
"r$	c #675858",
"s$	c #5C4C4D",
"t$	c #1D1919",
"u$	c #332C27",
"v$	c #463632",
"w$	c #BCBAB2",
"x$	c #938F81",
"y$	c #80746C",
"z$	c #B3B1AF",
"A$	c #C5C5C6",
"B$	c #5C5C5C",
"C$	c #E2E2E1",
"D$	c #DDDEDE",
"E$	c #A3A09C",
"F$	c #493E31",
"G$	c #32312C",
"H$	c #2C2D28",
"I$	c #38372F",
"J$	c #333328",
"K$	c #474436",
"L$	c #787671",
"M$	c #BDBBB5",
"N$	c #7C706D",
"O$	c #604C4C",
"P$	c #2D2523",
"Q$	c #312A24",
"R$	c #44342F",
"S$	c #C5C1BA",
"T$	c #93897F",
"U$	c #917F7F",
"V$	c #B4B4B4",
"W$	c #5B5B5B",
"X$	c #DFDEDE",
"Y$	c #AFAEAC",
"Z$	c #534D43",
"`$	c #56524B",
" %	c #4E4539",
".%	c #423C30",
"+%	c #423C28",
"@%	c #605A49",
"#%	c #989689",
"$%	c #B3ADA6",
"%%	c #614C4B",
"&%	c #3E2F2A",
"*%	c #382921",
"=%	c #47362D",
"-%	c #A99A8B",
";%	c #766F60",
">%	c #B8B7B7",
",%	c #C7C7C8",
"'%	c #C4C4C4",
")%	c #B3B3B3",
"!%	c #5A5A5B",
"~%	c #E0E0DF",
"{%	c #DDDEDD",
"]%	c #C3C3C2",
"^%	c #C4C3C2",
"/%	c #7D7672",
"(%	c #4A3A2B",
"_%	c #463A26",
":%	c #524A3A",
"<%	c #7C7464",
"[%	c #BCAFA6",
"}%	c #66554F",
"|%	c #655C58",
"1%	c #6D6662",
"2%	c #69615B",
"3%	c #7D766C",
"4%	c #ABA9A5",
"5%	c #C6C6C7",
"6%	c #B2B1B2",
"7%	c #5A5A5A",
"8%	c #DEDFDF",
"9%	c #D9D8D9",
"0%	c #898581",
"a%	c #574C3D",
"b%	c #434033",
"c%	c #655B4A",
"d%	c #806C5E",
"e%	c #847A75",
"f%	c #B6B5B5",
"g%	c #CBCBCC",
"h%	c #CBCBCA",
"i%	c #C7C6C7",
"j%	c #B0B1B0",
"k%	c #595959",
"l%	c #DCDBDB",
"m%	c #D8D7D8",
"n%	c #D7D6D7",
"o%	c #D5D6D6",
"p%	c #645C53",
"q%	c #6D6861",
"r%	c #A29F9B",
"s%	c #CAC9C9",
"t%	c #C5C4C5",
"u%	c #C2C2C3",
"v%	c #C1C2C1",
"w%	c #AFAFAF",
"x%	c #676767",
"y%	c #D9DADA",
"z%	c #D6D5D6",
"A%	c #D4D5D4",
"B%	c #D3D4D3",
"C%	c #C9C8C9",
"D%	c #C2C3C2",
"E%	c #C2C1C1",
"F%	c #AEAEAE",
"G%	c #626261",
"H%	c #D2D3D2",
"I%	c #D7D7D6",
"J%	c #D5D6D5",
"K%	c #CACBCB",
"L%	c #C4C3C4",
"M%	c #C1C0C1",
"N%	c #BDBEBE",
"O%	c #BABBBA",
"P%	c #B6B6B6",
"Q%	c #B3B2B3",
"R%	c #B1B1B1",
"S%	c #B0B0B0",
"T%	c #AEAFAE",
"U%	c #A1A1A0",
"V%	c #585858",
"W%	c #474747",
"X%	c #6B6B6B",
"Y%	c #6A6A6A",
"Z%	c #696969",
"`%	c #686868",
" &	c #656565",
".&	c #646464",
"+&	c #636363",
"@&	c #5F5E5E",
"#&	c #414041",
". + @ @ @ # $ % & & * = - ; > > > , ' ) ! ~ ~ { ] ^             ",
"+ / ( _ : < [ } | 1 2 3 4 5 6 7 8 9 0 a b c d e f g h           ",
"@ i j k _ : l m n } o p 1 q 3 r s 5 t u 8 v w x y z A B         ",
"@ C i D : l < [ E o F G H I J K L M N O a w P Q R S T U V       ",
"@ _ k W X < [ Y o Z `  ...+.@.#.$.%.&.*.=.-.;.R >.z T ,.'.).    ",
"!.l _ X < [ Y r ~.{.].^./.(._.:.<.[.}.|.1.2.3.4.5.z 6.7.8.9.0.  ",
"# < : a.[ Y } b.c.d.e.f.g.h.i._.j.k.l.m.n.o.p.q.r.s.t.- # u.v.w.",
"$ [ x.y.z.1 A.B.C.D.E.F.G.H.I.J.K.L.M.N.O.P.Q.R.S.T.U.V.W.X.Y.Z.",
"`.Y <  +} Z .+++@+#+$+%+&+u *+8 v =+-+;+>+,+'+)+!+~+O {+]+^+9./+",
"% o [ Y (+_+:+<+[+}+|+5 1+*+8 v w P ;.2+3+4+5+6+7+8+9+0+a+b+c+d+",
"& p Y e+O f+g+h+i+j+k+1+*+u v w P ;.l+>.c d m+n+o+p+q+0+^+r+9.s+",
"& t+} o u+v+w+x+y+k+z+A+u B+C+D+;.l+E+F+G+m+e f H+I+J+E+K+-+L+M+",
"& 2 o t+N+O+P+Q+v z+A+u 8 R+S+;.l+E+F+T+U+V+W+X+Y+Z+`+ @.@+@@@M+",
"#@$@p %@&@*@=@-@5 ;@7 8 >@,@P '@E+3+c )@!@~@{@]@^@/@(@_@+@T U M+",
"= :@1 q <@[@}@|@1@u 8 v 2@3@n+0+3+c d 4@5@6@7@8@9@0@a@%++@b@c@d@",
"- e@2 $@0+f@g@h@A+8 i@j@k@l@m@n@o@d m+p@q@r@s@t@u@v@w@x@6.6.|@d@",
"y@5 $@3 1+z@A@B@u v C@D@E@F@G@H@I@^+e J@K@L@M@N@O@P@Q@R@9.S@T@U@",
"; 1+3 V@W@X@Y@Z@0+v `@ #.#+#@###$#~.f %#&#*#=#-#;#>#,#'#)#T.!#~#",
"> A+r W@{#]#^#/#(#w _#:#<#[#}#|#1#2#K+3#4#5#6#7#8#9#0#a#b#r.c#~#",
"> u W@d#1+e#f#g#h#i#j#k#l#m#n#o#p#q#r#s#t#u#v#w#x#y#z#A#c#B#C#w.",
"> 8 D#1+A+E#F#G#H#I#J#K#L#M#N#O#P#Q#R#S#T#U#V#W#X#Y#Z#`# $S A w.",
", C+1+A+u 8 .$+$@$#$$$%$&$*$=$-$U.;$>$,$'$)$!$~${$]$^$/$z z ($w.",
", P A+u 8 .$D+_$:$<$[$}$|$1$2$3$4$5$6$7$8$9$0$a$b$c$d$e$z f$g$h$",
"' ;.u 8 v =+i@l+e i$j$k$l$m$n$o$p$q$r$s$t$u$v$w$x$y$z$z f$A$_@B$",
"' l+8 v w C$y E+D$E$F$G$H$I$J$K$L$M$N$O$P$Q$R$S$T$U$c@f$c+9.V$W$",
") X$v w P l+E+3+c d Y$Z$`$ %.%+%@%#%$%%%&%*%=%-%;%>%,%/$9.'%)%!%",
"~ j+w P ;.~%b {%d m+f ]%^%/%(%_%:%<%[%}%|%1%2%3%4%U.5%9.'%L+6%7%",
"~ d P ;.l+8%c d m+e 8.|+0+9%0%a%b%c%d%e%f%g%h%S z i%c+9.L+@@j%k%",
"~ m+;.l+E+3+c l%e f m%n%o%^+b@Y$p%q%r%/$T.r.s%z f$c+t%L+u%v%w%k%",
"x%y%y E+3+c _$e f |+{+z%A%B%-++@-.c+U.T.r.B#C%f$c+9.'%D%E%c@F%k%",
"G%H%I%J% @-++@b@6.S@K%S s.c+9.L%@@M%|@N%!#O%A >%P%V$Q%R%S%T%U%V%",
"W%X%Y%Z%Z%Z%`%x%/+ & & &.&+&s+s+M+M+d@U@@&~#w.w.B$W$!%7%k%k%V%#&"};
