/* XPM */
static char * drop_down_mini_xpm[] = {
"7 7 5 1",
" 	c None",
".	c #D9D9D9",
"+	c #777777",
"@	c #B7B7B7",
"#	c #000000",
"......+",
".@@@@@+",
".#####+",
".@###@+",
".@@#@@+",
".@@@@@+",
"+++++++"};
