/* XPM */
static char * ggseq_32_xpm[] = {
"32 32 292 2",
"  	c None",
". 	c #737373",
"+ 	c #666666",
"@ 	c #454545",
"# 	c #4E4E4E",
"$ 	c #787878",
"% 	c #636363",
"& 	c #252121",
"* 	c #390E0E",
"= 	c #540606",
"- 	c #6E0505",
"; 	c #740000",
"> 	c #6B0101",
", 	c #3B0C0C",
"' 	c #424242",
") 	c #595858",
"! 	c #440909",
"~ 	c #C70000",
"{ 	c #FB0000",
"] 	c #FF0000",
"^ 	c #FE0000",
"/ 	c #F40101",
"( 	c #D60303",
"_ 	c #B10101",
": 	c #7B0101",
"< 	c #2B1616",
"[ 	c #686868",
"} 	c #6C6C6C",
"| 	c #4A0C0C",
"1 	c #F00000",
"2 	c #FA0202",
"3 	c #CB0606",
"4 	c #9D0101",
"5 	c #390C0C",
"6 	c #575757",
"7 	c #372D2D",
"8 	c #D40000",
"9 	c #F70303",
"0 	c #A50505",
"a 	c #370202",
"b 	c #330909",
"c 	c #5C0404",
"d 	c #BA0303",
"e 	c #FD0000",
"f 	c #DB0808",
"g 	c #A60101",
"h 	c #400707",
"i 	c #565656",
"j 	c #707070",
"k 	c #590909",
"l 	c #F90202",
"m 	c #A40404",
"n 	c #180B0B",
"o 	c #444444",
"p 	c #595959",
"q 	c #151515",
"r 	c #040303",
"s 	c #520000",
"t 	c #EA0000",
"u 	c #DA0B0B",
"v 	c #A40101",
"w 	c #340D0D",
"x 	c #6B6B6B",
"y 	c #545454",
"z 	c #960101",
"A 	c #D10303",
"B 	c #410202",
"C 	c #2A2A2A",
"D 	c #414141",
"E 	c #6A6A6A",
"F 	c #878787",
"G 	c #717171",
"H 	c #6B3838",
"I 	c #E90000",
"J 	c #FF0101",
"K 	c #C70909",
"L 	c #940000",
"M 	c #281D1D",
"N 	c #BB0101",
"O 	c #AD0101",
"P 	c #201616",
"Q 	c #505050",
"R 	c #828282",
"S 	c #939393",
"T 	c #969696",
"U 	c #9F9F9F",
"V 	c #A7A7A7",
"W 	c #4A4A4A",
"X 	c #4B0101",
"Y 	c #F90000",
"Z 	c #F70505",
"` 	c #B10404",
" .	c #5C0202",
"..	c #4F4F4F",
"+.	c #3A3A3A",
"@.	c #C40606",
"#.	c #DA3434",
"$.	c #9B6D6D",
"%.	c #909090",
"&.	c #989898",
"*.	c #A1A1A1",
"=.	c #A8A8A8",
"-.	c #A4A4A4",
";.	c #333333",
">.	c #1E1D1D",
",.	c #990101",
"'.	c #D60505",
").	c #A00000",
"!.	c #2D2020",
"~.	c #525252",
"{.	c #938A8A",
"].	c #959595",
"^.	c #9B9B9B",
"/.	c #A5A5A5",
"(.	c #A9A9A9",
"_.	c #8E8E8E",
":.	c #888888",
"<.	c #919191",
"[.	c #393939",
"}.	c #2D0F0F",
"|.	c #F20000",
"1.	c #4B0606",
"2.	c #3E3E3E",
"3.	c #474747",
"4.	c #929292",
"5.	c #979797",
"6.	c #9E9E9E",
"7.	c #8A8A8A",
"8.	c #8F8F8F",
"9.	c #464646",
"0.	c #AA0101",
"a.	c #C30404",
"b.	c #770101",
"c.	c #484848",
"d.	c #818181",
"e.	c #A3A3A3",
"f.	c #9C9C9C",
"g.	c #8D8D8D",
"h.	c #8C8C8C",
"i.	c #838383",
"j.	c #626262",
"k.	c #858585",
"l.	c #630505",
"m.	c #D80303",
"n.	c #313131",
"o.	c #1D1D1D",
"p.	c #A6A6A6",
"q.	c #8F8A8A",
"r.	c #855F5F",
"s.	c #373737",
"t.	c #232323",
"u.	c #383838",
"v.	c #5D5D5D",
"w.	c #7D7D7D",
"x.	c #3D0E0E",
"y.	c #E80202",
"z.	c #A50000",
"A.	c #272020",
"B.	c #646464",
"C.	c #252525",
"D.	c #353535",
"E.	c #5C5C5C",
"F.	c #7F7F7F",
"G.	c #3B3B3B",
"H.	c #111111",
"I.	c #A80B0B",
"J.	c #F20A0A",
"K.	c #190202",
"L.	c #606060",
"M.	c #2B1010",
"N.	c #F20303",
"O.	c #281F1F",
"P.	c #585858",
"Q.	c #616161",
"R.	c #490C0C",
"S.	c #FC0000",
"T.	c #DC0505",
"U.	c #790101",
"V.	c #080707",
"W.	c #360F0F",
"X.	c #F40000",
"Y.	c #A20000",
"Z.	c #3C3B3B",
"`.	c #A90101",
" +	c #FE0101",
".+	c #C10404",
"++	c #510101",
"@+	c #2B2B2B",
"#+	c #656565",
"$+	c #5D0505",
"%+	c #F00202",
"&+	c #8A0101",
"*+	c #757575",
"=+	c #E40000",
"-+	c #F80202",
";+	c #B60101",
">+	c #470202",
",+	c #282828",
"'+	c #6F6F6F",
")+	c #343232",
"!+	c #B90101",
"~+	c #E20101",
"{+	c #470A0A",
"]+	c #F80101",
"^+	c #C00101",
"/+	c #580101",
"(+	c #171414",
"_+	c #302D2D",
":+	c #740303",
"<+	c #C50202",
"[+	c #200909",
"}+	c #6E6E6E",
"|+	c #5B5B5B",
"1+	c #4D0707",
"2+	c #EF0000",
"3+	c #E70000",
"4+	c #B60000",
"5+	c #770202",
"6+	c #670202",
"7+	c #B20101",
"8+	c #F30101",
"9+	c #5B0202",
"0+	c #4B4B4B",
"a+	c #340707",
"b+	c #CC0101",
"c+	c #790303",
"d+	c #1F1B1B",
"e+	c #100B0B",
"f+	c #BD0101",
"g+	c #FC0303",
"h+	c #F40202",
"i+	c #BF0404",
"j+	c #470505",
"k+	c #1C1B1B",
"l+	c #585656",
"m+	c #3C1616",
"n+	c #600303",
"o+	c #B50000",
"p+	c #E30606",
"q+	c #B00606",
"r+	c #5B0505",
"s+	c #141313",
"t+	c #7C7C7C",
"u+	c #7B7B7B",
"v+	c #8C0A0A",
"w+	c #C90202",
"x+	c #B00303",
"y+	c #DC0303",
"z+	c #E00505",
"A+	c #AA0000",
"B+	c #540404",
"C+	c #767676",
"D+	c #930808",
"E+	c #FB0202",
"F+	c #F50303",
"G+	c #E00303",
"H+	c #920000",
"I+	c #4C0707",
"J+	c #2E2525",
"K+	c #5A5A5A",
"L+	c #3F1C1C",
"M+	c #940202",
"N+	c #EC0000",
"O+	c #D60606",
"P+	c #B70707",
"Q+	c #9E0000",
"R+	c #320A0A",
"S+	c #302525",
"T+	c #920303",
"U+	c #E60707",
"V+	c #4E0707",
"W+	c #6D6D6D",
"X+	c #8B8B8B",
"Y+	c #6D1515",
"Z+	c #F20505",
"`+	c #D20202",
" @	c #E90101",
".@	c #F60000",
"+@	c #A70000",
"@@	c #450707",
"#@	c #5F1919",
"$@	c #EE0404",
"%@	c #150404",
"&@	c #520505",
"*@	c #2E0808",
"=@	c #4C4141",
"-@	c #730505",
";@	c #BF0101",
">@	c #500202",
",@	c #312E2E",
"'@	c #696969",
")@	c #555555",
"                                                                ",
"                            . + @ # $                           ",
"                      % & * = - ; > , '                         ",
"                    ) ! ~ { ] ^ / ( _ : < [                     ",
"                  } | 1 ] ] ^ ^ ] ] 2 3 4 5 6                   ",
"                  7 8 ] 9 0 a b c d e ] f g h i                 ",
"                j k ] l m n o p q r s t ] u v w x               ",
"                y z ] A B C D ' E F G H I J K L M               ",
"                ' N e O P Q R S T U V W X Y Z `  ...            ",
"                +.@.#.$.%.S &.*.=.-.%.;.>.,.] '.).!.            ",
"          $ ~.D p {.S ].^./.(.*._.:.<.[.G }.|.9 O 1.[           ",
"        2.3.G 4.S 5.U V (.6._.7.8.S S +.T 9.0.] a.b.c.          ",
"      o [ d.%.^.e.(.=.f.g.h.i.x j.k.S +.  % l.] m.,.n.          ",
"      D @ o.G p.=.&.F q.r.s.t.u.v.:.S +.  w.x.] y.z.A.          ",
"      B.C.D.E.F.G.H.I.J.0.K.q 9.L.g.S +.    M.] N.z.O.          ",
"        j P.2.s.Q.Q.R.S.T.U.V.~.L.4.S +.  F.W.^ X.Y.&           ",
"                    Z.`. +.+++~.[ 4.E @+  #+$+] %+&+u.          ",
"                    *+M.=+-+;+>+o.,+D.'+  )+!+] ~+ .~.          ",
"                      p {+X.]+^+/+(+P.E._+:+e ] <+[+}+          ",
"                        |+1+2+^ 3+4+5+6+7+S.] 8+9+G.            ",
"                          0+a+b+^ ] ] ] ] ] ]+c+d+              ",
"                            ~.e+f+]  +g+h+i+j+k+'+              ",
"                          l+m+n+o+] p+q+r+s+' t+                ",
"                        u+v+w+x+y+] z+A+B+Q                     ",
"                        C+D+] E+F+] G+A+H+I+J+K+                ",
"                          L+M+N+] ] -+O+P+0.Q+R+.               ",
"                            p S+T+] ] ]  +U+A+V+W+              ",
"                              X+Y+] Z+`+ @.@+@@@'+              ",
"                                #@] $@A+%@&@*@G.                ",
"                                =@-@;@>@,@'@j                   ",
"                                  L.D )@                        ",
"                                                                "};
