/* XPM */
static char * ggseq_32_xpm[] = {
"32 32 211 2",
"  	c None",
". 	c #FF9494",
"+ 	c #FB4E4E",
"@ 	c #F02828",
"# 	c #D70606",
"$ 	c #C00202",
"% 	c #AC0404",
"& 	c #C34A4A",
"* 	c #FF2020",
"= 	c #FF0000",
"- 	c #F20404",
"; 	c #C70505",
"> 	c #AD0606",
", 	c #D88989",
"' 	c #FF1818",
") 	c #FF0606",
"! 	c #FF1A1A",
"~ 	c #FF1313",
"{ 	c #E60909",
"] 	c #B00404",
"^ 	c #C85959",
"/ 	c #FF5A5A",
"( 	c #FF0202",
"_ 	c #E71E1E",
": 	c #F3C0C0",
"< 	c #FF6060",
"[ 	c #FF0808",
"} 	c #F00909",
"| 	c #B20505",
"1 	c #C24A4A",
"2 	c #FF0909",
"3 	c #DA0C0C",
"4 	c #DC9494",
"5 	c #FFDBDB",
"6 	c #FF1C1C",
"7 	c #EF0A0A",
"8 	c #AF0505",
"9 	c #CD6B6B",
"0 	c #FFAAAA",
"a 	c #F50303",
"b 	c #BB2C2C",
"c 	c #ACACAC",
"d 	c #9A9A9A",
"e 	c #D9B0B0",
"f 	c #FF1D1D",
"g 	c #DD0C0C",
"h 	c #AA0101",
"i 	c #E6B2B2",
"j 	c #FF8484",
"k 	c #D50202",
"l 	c #D47E7E",
"m 	c #DEDEDE",
"n 	c #939393",
"o 	c #959595",
"p 	c #9E9E9E",
"q 	c #A6A6A6",
"r 	c #FE0202",
"s 	c #C00909",
"t 	c #B52121",
"u 	c #FF7474",
"v 	c #F90C0C",
"w 	c #B83E3E",
"x 	c #A08B8B",
"y 	c #979797",
"z 	c #A0A0A0",
"A 	c #A8A8A8",
"B 	c #A7A7A7",
"C 	c #989898",
"D 	c #FF7979",
"E 	c #EB0606",
"F 	c #AA0000",
"G 	c #DE9C9C",
"H 	c #BE9494",
"I 	c #9A9090",
"J 	c #949494",
"K 	c #A3A3A3",
"L 	c #A9A9A9",
"M 	c #888888",
"N 	c #8C8C8C",
"O 	c #FE0000",
"P 	c #BB0505",
"Q 	c #BC3737",
"R 	c #AAAAAA",
"S 	c #969696",
"T 	c #9D9D9D",
"U 	c #A5A5A5",
"V 	c #8E8E8E",
"W 	c #FF7070",
"X 	c #DA0505",
"Y 	c #AB0202",
"Z 	c #CBCBCB",
"` 	c #999999",
" .	c #A4A4A4",
"..	c #919191",
"+.	c #8A8A8A",
"@.	c #909090",
"#.	c #828282",
"$.	c #767676",
"%.	c #F40303",
"&.	c #E2AAAA",
"*.	c #565656",
"=.	c #505050",
"-.	c #7E7E7E",
";.	c #A2A2A2",
">.	c #8B8B8B",
",.	c #727272",
"'.	c #606060",
").	c #FF0D0D",
"!.	c #B20202",
"~.	c #D47D7D",
"{.	c #585858",
"].	c #282828",
"^.	c #6A6A6A",
"/.	c #D2D2D2",
"(.	c #A08080",
"_.	c #A96868",
":.	c #AC4848",
"<.	c #E1B4B4",
"[.	c #8F8F8F",
"}.	c #5D5D5D",
"|.	c #FF2C2C",
"1.	c #BE0303",
"2.	c #CE6D6D",
"3.	c #E50A0A",
"4.	c #BA3232",
"5.	c #696969",
"6.	c #666666",
"7.	c #929292",
"8.	c #FF3434",
"9.	c #C50202",
"0.	c #FF3F3F",
"a.	c #FF0101",
"b.	c #C00808",
"c.	c #D88C8C",
"d.	c #686868",
"e.	c #FF2222",
"f.	c #C50000",
"g.	c #D58282",
"h.	c #FF0707",
"i.	c #F40505",
"j.	c #B30A0A",
"k.	c #CA9F9F",
"l.	c #737373",
"m.	c #DBDBDB",
"n.	c #FF0303",
"o.	c #C10404",
"p.	c #E7B8B8",
"q.	c #FF7A7A",
"r.	c #E80505",
"s.	c #B11111",
"t.	c #FF7E7E",
"u.	c #B80E0E",
"v.	c #FF4A4A",
"w.	c #E80202",
"x.	c #B71212",
"y.	c #E4AFAF",
"z.	c #FF0E0E",
"A.	c #CC6565",
"B.	c #FF4242",
"C.	c #F80101",
"D.	c #D40404",
"E.	c #DC5454",
"F.	c #E69D9D",
"G.	c #FF8080",
"H.	c #D31818",
"I.	c #FF6666",
"J.	c #FF0404",
"K.	c #EF1515",
"L.	c #F0CECE",
"M.	c #FFB4B4",
"N.	c #FF0C0C",
"O.	c #F94444",
"P.	c #FF2B2B",
"Q.	c #EC0404",
"R.	c #D10A0A",
"S.	c #E24747",
"T.	c #E68F8F",
"U.	c #B52222",
"V.	c #AB0303",
"W.	c #F00A0A",
"X.	c #DE0606",
"Y.	c #FE0909",
"Z.	c #EA0808",
"`.	c #C50404",
" +	c #EE0606",
".+	c #CA5E5E",
"++	c #E00202",
"@+	c #B92E2E",
"#+	c #DE9A9A",
"$+	c #FF8C8C",
"%+	c #FF2424",
"&+	c #FE0101",
"*+	c #CE0909",
"=+	c #B00606",
"-+	c #C75858",
";+	c #FF5C5C",
">+	c #FC0404",
",+	c #B20101",
"'+	c #BE3D3D",
")+	c #FF7B7B",
"!+	c #F21818",
"~+	c #CC0505",
"{+	c #FB1A1A",
"]+	c #B30000",
"^+	c #C65555",
"/+	c #F01111",
"(+	c #FFD2D2",
"_+	c #E5A3A3",
":+	c #FF6464",
"<+	c #F11515",
"[+	c #CB6464",
"                                                                ",
"                          . + @ # $ % &                         ",
"                        * = = = = = - ; > ,                     ",
"                      ' = = ) ! ~ = = = { ] ^                   ",
"                    / = ( _ :       < [ = } | 1                 ",
"                    2 = 3 4           5 6 = 7 8 9               ",
"                  0 = a b         c d c e f = g h i             ",
"                  j = k l   m d n o p q     ) r s t             ",
"                  u v w x n n y z A B C     D = E F G           ",
"                  H I n J d K L B o M N       ' O P Q           ",
"              R n n S T q L U n M V n n       W = X Y           ",
"        Z ` n n ` z B R  ...+.@.#.$...n         = %.F &.        ",
"        *.=.-.K A R ;.@.>.S >.  ,.'.>.n         ).O !.~.        ",
"        {.].^. .A /.(._.:.<.z [.}.'.@.n         |.= 1.2.        ",
"            c         ( 3.4.    5.6.7.n         8.= 9.2.        ",
"                      0.a.b.c.  '.d.n n         e.= f.g.        ",
"                        h.i.j.k.l.,.S m.        n.= o.p.        ",
"                        q.= r.s.              t.= O u.          ",
"                          v.= w.x.y.          z.= - A.          ",
"                            B.= C.D.E.F.  G.z.= = H.            ",
"                              I.( = = J.( = = = K.L.            ",
"                                M.N.= = = = J.O.                ",
"                                  P.= Q.R.S.                    ",
"                            T.U.V.W.= X.F 2.                    ",
"                            Y.Z.`. += X.F .+                    ",
"                            f = = = = ++h F @+#+                ",
"                              $+%+= = &+ +*+=+F -+              ",
"                                  ;+= = = = >+,+'+              ",
"                                  )+= !+~+{+= ]+^+              ",
"                                  $+= /+F   (+_+                ",
"                                    :+<+[+                      ",
"                                                                "};
