/* XPM */
static char * help_xpm[] = {
"16 16 14 1",
" 	c None",
".	c #C0C0C0",
"+	c #3F3F5F",
"@	c #7F7F3F",
"#	c #DFDF7F",
"$	c #9F9F5F",
"%	c #FFFF9F",
"&	c #5F5F3F",
"*	c #7F7F5F",
"=	c #9F9F7F",
"-	c #BFBF9F",
";	c #808080",
">	c #5F5F5F",
",	c #000000",
"                ",
"      ;;;;;     ",
"    ;;#%%%#;;   ",
"   ;$%%%%%%%$*  ",
"   ;%#@,,@#%%&= ",
"  ;##@,>>,@#%$* ",
"  ;##&@#%+,#%#& ",
"  ;#%%%%@,@#%#& ",
"  ;#%%%@,@#%%#& ",
"  ;#%%%,@#%%%$* ",
"   ;%%%##%%%%*= ",
"   ;$%%,@%%%$*  ",
"    ;;###%#**   ",
"      ;%%**=    ",
"      ;%&=      ",
"     &&&-       "};
