/* XPM */
static char * help_xpm[] = {
"16 16 32 1",
" 	c None",
".	c #FFFFFF",
"+	c #D7D7D7",
"@	c #515151",
"#	c #181818",
"$	c #030303",
"%	c #151515",
"&	c #5C5C5C",
"*	c #E9E9E9",
"=	c #ABABAB",
"-	c #000000",
";	c #1D1D1D",
">	c #282828",
",	c #464646",
"'	c #CDCDCD",
")	c #C3C3C3",
"!	c #575757",
"~	c #070707",
"{	c #FBFBFB",
"]	c #373737",
"^	c #252525",
"/	c #F8F8F8",
"(	c #4F4F4F",
"_	c #040404",
":	c #B5B5B5",
"<	c #616161",
"[	c #090909",
"}	c #B0B0B0",
"|	c #7A7A7A",
"1	c #CFCFCF",
"2	c #EAEAEA",
"3	c #8B8B8B",
"................",
"................",
"................",
"....+@#$%&*.....",
"....=-;>--,.....",
"....')..!-~.....",
".......{]-^.....",
"....../(-_:.....",
"......<-[}......",
"......~-|.......",
"......112.......",
"......--3.......",
"......--3.......",
"................",
"................",
"................"};
