/* XPM */
static char * mute_on_xpm[] = {
"18 18 63 1",
" 	c None",
".	c #000000",
"+	c #BDBEBD",
"@	c #181C18",
"#	c #393839",
"$	c #202020",
"%	c #8B898B",
"&	c #9C9D9C",
"*	c #949594",
"=	c #313231",
"-	c #A4A1A4",
";	c #D5D2D5",
">	c #DEDADE",
",	c #121112",
"'	c #020202",
")	c #ACAEAC",
"!	c #DEDEDE",
"~	c #EEEAEE",
"{	c #EEEEEE",
"]	c #1F211F",
"^	c #ACAAAC",
"/	c #0F0F0F",
"(	c #0D0C0D",
"_	c #D2D2D2",
":	c #E6E6E6",
"<	c #262726",
"[	c #DCDAD5",
"}	c #908E90",
"|	c #010101",
"1	c #B0B0B0",
"2	c #525552",
"3	c #DAD8D5",
"4	c #B0ADB0",
"5	c #3F3F3F",
"6	c #090909",
"7	c #626562",
"8	c #CDCECD",
"9	c #C5C6C5",
"0	c #313431",
"a	c #A3A0A3",
"b	c #141514",
"c	c #292829",
"d	c #737573",
"e	c #BDBABD",
"f	c #313031",
"g	c #C5C2C5",
"h	c #494949",
"i	c #131313",
"j	c #B4B2B4",
"k	c #454645",
"l	c #454545",
"m	c #8F8D8F",
"n	c #838583",
"o	c #202420",
"p	c #2A2A2A",
"q	c #323132",
"r	c #282828",
"s	c #0A0A0A",
"t	c #949194",
"u	c #8B8D8B",
"v	c #838183",
"w	c #080C08",
"x	c #4A484A",
"..      +@#       ",
"...    +$%#   &.  ",
" ...  +$*+#   =.. ",
"  ...+$-;>#  ...  ",
"  #,.')!~{# ]..   ",
"  ^)/.(_~:#..<+   ",
"  [[#}'|1>... 2   ",
"  [3#!4||5.6  7   ",
"  890;8a..bc) d   ",
"  +ef9gh...i  7   ",
"  jjf+k.lm.|  7   ",
"  nnop.ljjq..,    ",
"  ##<.rjjj# s..   ",
"   ..h$tjj#  ...  ",
"  ... +$u)#   ... ",
"  ..   +$v#    .. ",
"        +w#     . ",
"         +x       "};
