/* XPM */
static char * mute_off_xpm[] = {
"13 18 44 1",
" 	c None",
".	c #BDBEBD",
"+	c #181C18",
"@	c #393839",
"#	c #202020",
"$	c #8B898B",
"%	c #9C9D9C",
"&	c #949594",
"*	c #ACAEAC",
"=	c #A4A1A4",
"-	c #D5D2D5",
";	c #DEDADE",
">	c #626562",
",	c #DEDEDE",
"'	c #EEEAEE",
")	c #EEEEEE",
"!	c #525552",
"~	c #ACAAAC",
"{	c #313031",
"]	c #E6E6E6",
"^	c #DCDAD5",
"/	c #E6E2E6",
"(	c #000000",
"_	c #949194",
":	c #DAD8D5",
"<	c #D5D6D5",
"[	c #CDCECD",
"}	c #313431",
"|	c #181818",
"1	c #C5C6C5",
"2	c #CDCACD",
"3	c #C5C2C5",
"4	c #414441",
"5	c #292829",
"6	c #737573",
"7	c #BDBABD",
"8	c #B4B6B4",
"9	c #B4B2B4",
"0	c #080C08",
"a	c #838583",
"b	c #202420",
"c	c #8B8D8B",
"d	c #838183",
"e	c #4A484A",
"      .+@    ",
"     .#$@   %",
"    .#&.@   *",
"   .#=-;@    ",
"@@>#*,')@ !. ",
"~*{.')']@  >.",
"^^@']/,;(_  !",
"^:@,;<-[}|  >",
"[1}-[21345* 6",
".7{13.78@|  >",
"99{.89990_  >",
"aab_9999@  @ ",
"@@>+c999@ 6  ",
"   .#_99@    ",
"    .#c*@    ",
"     .#d@    ",
"      .0@    ",
"       .e    "};
