/* XPM */
static char * new1_xpm[] = {
"16 16 9 1",
" 	c None",
".	c #C0C0C0",
"+	c #008080",
"@	c #5F9F9F",
"#	c #FFDF9F",
"$	c #FFFFFF",
"%	c #C0C0C0",
"&	c #808080",
"*	c #000000",
"           *    ",
"  &&&&&&*  +  * ",
"  &#$$$$ +#*#*  ",
"  &$$$$$ #*#*#  ",
"  &$$$$$#*#$#***",
"  &$$$$$*#*#*#  ",
"  &$$$$$ +#*#*  ",
"  &$$$$$*  +  * ",
"  &$$$$$   *    ",
"  &$$$$$$$$%*   ",
"  &$$$$$$$$$*   ",
"  &$$$$$$$$%*   ",
"  &$$$$$$$$$*   ",
"  &%%%%%%%%%*   ",
"  &**********   ",
"                "};
