/* XPM */
static char * open_xpm[] = {
"16 16 10 1",
" 	c None",
".	c #808000",
"+	c #9F9F3F",
"@	c #FFFF9F",
"#	c #5F5F3F",
"$	c #9F9F7F",
"%	c #DFBF3F",
"&	c #BF9F3F",
"*	c #FFDF9F",
"=	c #5F5F5F",
"                ",
"                ",
"                ",
"  ....          ",
" =*@**=         ",
".*@*@**.....+   ",
".@*@*@*@*@*@=   ",
".*@*@*@*@*@*.   ",
".@*@*###########",
".*@*#%%%%%%%%&= ",
".@*#%%%%%%%%&=  ",
".*#%%%%%%%%&=   ",
".#&&&&&&&&&=    ",
"$==========     ",
"                ",
"                "};
