/* XPM */
static char * play_12_xpm[] = {
"12 12 28 1",
" 	c None",
".	c #686800",
"+	c #7B5B00",
"@	c #9A4500",
"#	c #884E00",
"$	c #E10D00",
"%	c #8B5000",
"&	c #864E00",
"*	c #E20000",
"=	c #F20000",
"-	c #DE0D00",
";	c #914500",
">	c #D70000",
",	c #CA0000",
"'	c #A10D00",
")	c #854A2C",
"!	c #96472F",
"~	c #D60000",
"{	c #C50000",
"]	c #9E0604",
"^	c #8D3624",
"/	c #93472F",
"(	c #C20000",
"_	c #A60000",
":	c #8A472F",
"<	c #8D3523",
"[	c #854D33",
"}	c #7F5F3F",
"   .        ",
"   +@       ",
"   #$%      ",
"   &*=%     ",
"   &**-;    ",
"   &*>,')   ",
"   !~{]^    ",
"   /(_^     ",
"   :_<      ",
"   [^       ",
"   }        ",
"            "};
