/* XPM */
static char * play_xpm[] = {
"16 16 7 1",
" 	c None",
".	c #686800",
"+	c #FF0000",
"@	c #E20000",
"#	c #CE0000",
"$	c #A00000",
"%	c #7F5F3F",
"    .           ",
"    ..          ",
"    .+.         ",
"    .@+.        ",
"    .@@+.       ",
"    .@@@+.      ",
"    .@@@@@.     ",
"    .@@##$$%    ",
"    %@##$$%     ",
"    %##$$%      ",
"    %#$$%       ",
"    %$$%        ",
"    %$%         ",
"    %%          ",
"    %           ",
"                "};
