/* XPM */
static char * prefs_misc_xpm[] = {
"16 16 12 1",
" 	c None",
".	c #3F3F5F",
"+	c #3F5F9F",
"@	c #5F7FBF",
"#	c #A6CAF0",
"$	c #3F5F3F",
"%	c #DFDFBF",
"&	c #FFFBF0",
"*	c #C0C0C0",
"=	c #BFBFBF",
"-	c #9F9F9F",
";	c #000000",
"           ===  ",
"          -$..- ",
"         =$&&&$=",
"   =++++++++&&$=",
"  =+########.&.=",
"@++##++.....$.-*",
".+#####..=*===**",
".+##@.@#@.******",
".+#@.+...=******",
".+@+++@#.*%===**",
".+@@.+#.=*-$..-*",
"@...@..= =$&=&$=",
"         =$=;=$=",
"         =.&=&.=",
"          -$..- ",
"           ===  "};
