/* XPM */
static char * redo_xpm[] = {
"16 16 24 1",
" 	c None",
".	c #FFFFFF",
"+	c #8C8C8C",
"@	c #777777",
"#	c #000000",
"$	c #636363",
"%	c #4A4A4A",
"&	c #C6C6C6",
"*	c #3B3B3B",
"=	c #050505",
"-	c #3F3F3F",
";	c #010101",
">	c #222222",
",	c #030303",
"'	c #A1A1A1",
")	c #4C4C4C",
"!	c #A9A9A9",
"~	c #8F8F8F",
"{	c #4D4D4D",
"]	c #F3F3F3",
"^	c #3A3A3A",
"/	c #020202",
"(	c #747474",
"_	c #171717",
".....+@.........",
".....@#$........",
"......$#$.......",
".......$#%......",
".....&*=##-.....",
"...&=###;#>.....",
"..&##=&.=,......",
"..=#'..);!......",
"..;;...!~.......",
"..;;............",
"..>#{...........",
"..]##{..........",
"...';##^].......",
"....]>####/(....",
".......'_;/(....",
"................"};
