/* XPM */
static char * redo_xpm[] = {
"16 16 15 1",
" 	c None",
".	c #686800",
"+	c #FFF26B",
"@	c #7F5F3F",
"#	c #FFF200",
"$	c #E7DC25",
"%	c #E8DD25",
"&	c #E5E104",
"*	c #E2C509",
"=	c #E7DC24",
"-	c #E0D623",
";	c #E5DA24",
">	c #E4D927",
",	c #E6DB25",
"'	c #8F7760",
"          .     ",
"          ..    ",
"      .....+.   ",
"    @@+####++.  ",
"   @+$%%&####+. ",
"  .+$%%%$&&&#.  ",
" .*%%%$@@@@&@   ",
" @=%%%@   @@    ",
" @-%%@    @     ",
" @;%;.          ",
" @>%-+.         ",
" @*$%#+....     ",
"  @*%###++.     ",
"   @*,%##+.     ",
"    @*$%%#.     ",
"     '@@@@@     "};
