/* XPM */
static char * rewind_xpm[] = {
"16 16 7 1",
" 	c None",
".	c #686800",
"+	c #FFF26B",
"@	c #FFF200",
"#	c #E5E104",
"$	c #7F5F3F",
"%	c #E2C509",
"  ....       .  ",
"  .++.      ..  ",
"  .+@.     .+.  ",
"  .+@.    .+@.  ",
"  .@@.   .+@@.  ",
"  .@@.  .+@@@.  ",
"  .@#. .+@@@#.  ",
"  .##..+@@@@#$  ",
"  .#%$ .@@@#%$  ",
"  .#%$  $@##%$  ",
"  .%%$   $#%%$  ",
"  .%%$    $%%$  ",
"  $%%$     $%$  ",
"  $%%$      $$  ",
"  $$$$       $  ",
"                "};
