/* XPM */
static char * saveas_xpm[] = {
"16 16 16 1",
" 	c None",
".	c #848284",
"+	c #3F3F5F",
"@	c #3F5F3F",
"#	c #BFBF7F",
"$	c #DFDF9F",
"%	c #DFDFBF",
"&	c #DFBF3F",
"*	c #FFFBF0",
"=	c #BF7F3F",
"-	c #9F7F5F",
";	c #BF9F7F",
">	c #7F5F5F",
",	c #FFFFFF",
"'	c #5F5F5F",
")	c #000000",
"                ",
" @>@>@@@@>@@    ",
" @*@,,,%$+,+    ",
" @*@,*%,$@++    ",
" @*@,%,$#@;+    ",
" @*>$$$##+;+    ",
" @%&+@@++&;+    ",
" @*;;;;;;&;+    ",
" @%&++++++;+    ",
" @*&+-=@%+;+    ",
" >%&+=-@%+;+    ",
"  +++++++++)    ",
"                ",
"        .' .' .'",
"        ') ') ')",
"                "};
