/* XPM */
static char * snap_xpm[] = {
"16 16 79 1",
" 	c None",
".	c #FFFFFF",
"+	c #E7E7E7",
"@	c #DEDEDE",
"#	c #EEEEEE",
"$	c #FBFBFB",
"%	c #CFCFCF",
"&	c #ADADAD",
"*	c #B6B6B6",
"=	c #848484",
"-	c #BBBBBB",
";	c #EAEAEA",
">	c #CACACA",
",	c #636363",
"'	c #F1F1F1",
")	c #B9B9B9",
"!	c #BCBCBC",
"~	c #FEFEFE",
"{	c #EDEDED",
"]	c #C8C8C8",
"^	c #ECECEC",
"/	c #A4A4A4",
"(	c #828282",
"_	c #B8B8B8",
":	c #E8E8E8",
"<	c #F5F5F5",
"[	c #646464",
"}	c #7F7F7F",
"|	c #F3F3F3",
"1	c #606060",
"2	c #DDDDDD",
"3	c #F6F6F6",
"4	c #EBEBEB",
"5	c #919191",
"6	c #5F5F5F",
"7	c #858585",
"8	c #B0B0B0",
"9	c #585858",
"0	c #E1E1E1",
"a	c #F0F0F0",
"b	c #FCFCFC",
"c	c #B5B5B5",
"d	c #E6E6E6",
"e	c #9D9D9D",
"f	c #A6A6A6",
"g	c #DBDBDB",
"h	c #5E5E5E",
"i	c #818181",
"j	c #FDFDFD",
"k	c #F9F9F9",
"l	c #D7D7D7",
"m	c #A5A5A5",
"n	c #C3C3C3",
"o	c #D2D2D2",
"p	c #949494",
"q	c #D1D1D1",
"r	c #C6C6C6",
"s	c #CECECE",
"t	c #CCCCCC",
"u	c #676767",
"v	c #595959",
"w	c #7D7D7D",
"x	c #AAAAAA",
"y	c #BFBFBF",
"z	c #CDCDCD",
"A	c #4F4F4F",
"B	c #E4E4E4",
"C	c #D4D4D4",
"D	c #D9D9D9",
"E	c #B7B7B7",
"F	c #DCDCDC",
"G	c #757575",
"H	c #909090",
"I	c #565656",
"J	c #868686",
"K	c #BDBDBD",
"L	c #D6D6D6",
"M	c #C0C0C0",
"N	c #AEAEAE",
"................",
"............++@#",
"..........$%&*=-",
".........$;>,')!",
".......~{]^./(/_",
"......:<>[}|~1*$",
".....2!345678>90",
"...a.bcd:efghi/j",
".klmeno_.pq.rs..",
"gtoruv(wxy=j....",
"zao~]*>iAfB.....",
"cCD]~E2jF.......",
"GHIJxKm~........",
"aL{_nd..........",
"~MN_a...........",
"................"};
