/* XPM */
static char * snap_xpm[] = {
"16 16 36 1",
" 	c None",
".	c #E0E0E0",
"+	c #DFDFDF",
"@	c #DBDBDB",
"#	c #BABABA",
"$	c #A9A9A9",
"%	c #545454",
"&	c #383838",
"*	c #B1B1B1",
"=	c #BCBCBC",
"-	c #5F5F5F",
";	c #B4B4B4",
">	c #808080",
",	c #929292",
"'	c #262626",
")	c #AFAFAF",
"!	c #A2A2A2",
"~	c #969696",
"{	c #797979",
"]	c #ACACAC",
"^	c #A5A5A5",
"/	c #787878",
"(	c #111111",
"_	c #A3A3A3",
":	c #A6A6A6",
"<	c #474747",
"[	c #000000",
"}	c #696969",
"|	c #939393",
"1	c #858585",
"2	c #818181",
"3	c #646464",
"4	c #6A6A6A",
"5	c #393939",
"6	c #555555",
"7	c #4E4E4E",
"                ",
"                ",
".+@@+.....+@@+..",
"#$%&*====#$--$#=",
";>,')====;>!~{;=",
"#;]&)====#*^/$#=",
"=#!(_#===#:<,)#=",
"=;-[-;===;-['};=",
"~|121|~~~|1221|~",
"                ",
"   3       3    ",
"  454     454   ",
"                ",
"   4       4    ",
"   5<%666%<5    ",
"   7       7    "};
