/* XPM */
static char * stop_xpm[] = {
"16 16 37 1",
" 	c None",
".	c #686800",
"+	c #3DC63D",
"@	c #2FC32F",
"#	c #36C536",
"$	c #07C107",
"%	c #38C538",
"&	c #2BC42B",
"*	c #27C327",
"=	c #16C216",
"-	c #0AC10A",
";	c #3BC53B",
">	c #34C334",
",	c #21C121",
"'	c #11C111",
")	c #1ABC1A",
"!	c #7F5F3F",
"~	c #33C233",
"{	c #16C116",
"]	c #0ABF0A",
"^	c #19B919",
"/	c #25B225",
"(	c #18BC18",
"_	c #19BB19",
":	c #20B320",
"<	c #0CB20C",
"[	c #24B324",
"}	c #23B223",
"|	c #0DB20D",
"1	c #0FAD0F",
"2	c #0EAE0E",
"3	c #10AC10",
"4	c #16A616",
"5	c #18A518",
"6	c #1FA11F",
"7	c #24A524",
"8	c #21A021",
"                ",
"                ",
"   ...........  ",
"   .+++++@#$$.  ",
"   .++%&*=-$$.  ",
"   .;>,'-$$$)!  ",
"   .~{$$$]^)/!  ",
"   .$$$$(_:/<!  ",
"   .$$))[}|<<!  ",
"   .))//|<11<!  ",
"   .//<<23456!  ",
"   !<<<<78888!  ",
"   !!!!!!!!!!!  ",
"                ",
"                ",
"                "};
