/* XPM */
static char * stop_12_xpm[] = {
"12 12 49 1",
" 	c None",
".	c #686800",
"+	c #48AE2E",
"@	c #45AE2B",
"#	c #40AD26",
"$	c #28AB0E",
"%	c #319A04",
"&	c #3CC63C",
"*	c #37C537",
"=	c #28C328",
"-	c #1CC21C",
";	c #0EC10E",
">	c #08C108",
",	c #24A90D",
"'	c #6E6610",
")	c #33C333",
"!	c #1DC21D",
"~	c #09C109",
"{	c #0CBF0C",
"]	c #10BE10",
"^	c #37A127",
"/	c #7F5F3F",
"(	c #10C110",
"_	c #07C107",
":	c #14BD14",
"<	c #1AB81A",
"[	c #21B421",
"}	c #2D9D1D",
"|	c #0CC00C",
"1	c #1DBA1D",
"2	c #1EB31E",
"3	c #15B115",
"4	c #0DB10D",
"5	c #299D19",
"6	c #1FB71F",
"7	c #1CB41C",
"8	c #19B219",
"9	c #0EB00E",
"0	c #10AC10",
"a	c #13A913",
"b	c #309720",
"c	c #79612F",
"d	c #12B212",
"e	c #0FB20F",
"f	c #0CB20C",
"g	c #1EA61E",
"h	c #1DA21D",
"i	c #1FA11F",
"j	c #389028",
"            ",
"   .......  ",
"  .+++@#$%. ",
"  .&*=-;>,' ",
"  .)!;~{]^/ ",
"  .(~_:<[}/ ",
"  .|:12345/ ",
"  .67890ab/ ",
"  cdefghij/ ",
"  ////////  ",
"            ",
"            "};
