/* XPM */
static char * undo_xpm[] = {
"16 16 24 1",
" 	c None",
".	c #FFFFFF",
"+	c #777777",
"@	c #8C8C8C",
"#	c #636363",
"$	c #000000",
"%	c #4A4A4A",
"&	c #3F3F3F",
"*	c #050505",
"=	c #3B3B3B",
"-	c #C6C6C6",
";	c #222222",
">	c #010101",
",	c #030303",
"'	c #A9A9A9",
")	c #4C4C4C",
"!	c #A1A1A1",
"~	c #8F8F8F",
"{	c #4D4D4D",
"]	c #F3F3F3",
"^	c #3A3A3A",
"/	c #747474",
"(	c #020202",
"_	c #171717",
".........+@.....",
"........#$+.....",
".......#$#......",
"......%$#.......",
".....&$$*=-.....",
".....;$>$$$*-...",
"......,*.-*$$-..",
"......'>)..!$*..",
".......~'...>>..",
"............>>..",
"...........{$;..",
"..........{$$]..",
".......]^$$>!...",
"..../($$$$;]....",
"..../(>_!.......",
"................"};
