/* XPM */
static char * wav_export_xpm[] = {
"16 16 98 2",
"  	c None",
". 	c #FFFFFF",
"+ 	c #CDCDCD",
"@ 	c #C6C6C6",
"# 	c #F7F7F7",
"$ 	c #B5B5B5",
"% 	c #474747",
"& 	c #BFBFBF",
"* 	c #FAFAFA",
"= 	c #C4C4C4",
"- 	c #4C4C4C",
"; 	c #9C9C9C",
"> 	c #F3F3F3",
", 	c #DCDCDC",
"' 	c #A0A0A0",
") 	c #C7C7C7",
"! 	c #E1E1E1",
"~ 	c #A5A5A5",
"{ 	c #525252",
"] 	c #DFDFDF",
"^ 	c #FCFCFC",
"/ 	c #E6E6E6",
"( 	c #626262",
"_ 	c #484848",
": 	c #616161",
"< 	c #868686",
"[ 	c #7F7F7F",
"} 	c #B2B2B2",
"| 	c #D3D3D3",
"1 	c #F2F2F2",
"2 	c #AFAFAF",
"3 	c #A3A3A3",
"4 	c #414141",
"5 	c #424242",
"6 	c #F1F1F1",
"7 	c #989898",
"8 	c #8C8C8C",
"9 	c #ADADAD",
"0 	c #F9F9F9",
"a 	c #BBBBBB",
"b 	c #FEFEFE",
"c 	c #A1A1A1",
"d 	c #7A7A7A",
"e 	c #7E7E7E",
"f 	c #747474",
"g 	c #2D2D2D",
"h 	c #AAAAAA",
"i 	c #D9D9D9",
"j 	c #EAEAEA",
"k 	c #CBCBCB",
"l 	c #F4F4F4",
"m 	c #C9C9C9",
"n 	c #919191",
"o 	c #E3E3E3",
"p 	c #5E5E5E",
"q 	c #5A5A5A",
"r 	c #282828",
"s 	c #CCCCCC",
"t 	c #CACACA",
"u 	c #6C6C6C",
"v 	c #8F8F8F",
"w 	c #373737",
"x 	c #979797",
"y 	c #DDDDDD",
"z 	c #ECECEC",
"A 	c #636363",
"B 	c #535353",
"C 	c #B7B7B7",
"D 	c #4F4F4F",
"E 	c #878787",
"F 	c #6F6F6F",
"G 	c #606060",
"H 	c #272727",
"I 	c #818181",
"J 	c #EFEFEF",
"K 	c #797979",
"L 	c #B0B0B0",
"M 	c #C8C8C8",
"N 	c #F8F8F8",
"O 	c #585858",
"P 	c #575757",
"Q 	c #5C5C5C",
"R 	c #CFCFCF",
"S 	c #F6F6F6",
"T 	c #E8E8E8",
"U 	c #8E8E8E",
"V 	c #4E4E4E",
"W 	c #969696",
"X 	c #515151",
"Y 	c #686868",
"Z 	c #010101",
"` 	c #B9B9B9",
" .	c #EBEBEB",
"..	c #383838",
"+.	c #313131",
"@.	c #949494",
"#.	c #B6B6B6",
"$.	c #898989",
". . . . . . . . . . . . + @ . . ",
". . . . . . . . . . . # $ % & . ",
". . . . . . . . . . . * = - ; > ",
". . . . . . . . . , ' ) ! ~ { ] ",
". . . . . . . . ^ / ( _ : < [ } ",
". . . . . . . ! | * 1 2 3 4 5 ( ",
". . . . . . 6 7 % 8 9 ! 0 , 7 a ",
". . . . . b * c d e f g h i 0 # ",
". . . . j k l m n o p q r s 0 . ",
". . . ^ t u v l ; w x . i y . . ",
". . z m 6 A B C k D E * . . . . ",
". l . F G y H I J K L j . . . . ",
"1 M ; N O P q Q R S T . . . . . ",
"S U B V W X Y Z ` S . . . . . . ",
".  .3 { ..+.@.i R . . . . . . . ",
". . S y #.$.e T . . . . . . . . "};
