/* XPM */
static char * wav_export_xpm[] = {
"16 16 22 1",
" 	c None",
".	c #545454",
"+	c #8C8C8C",
"@	c #E1DBDB",
"#	c #E1DCDC",
"$	c #DCD6D6",
"%	c #959595",
"&	c #DFDADA",
"*	c #6C6C6C",
"=	c #D6D0D0",
"-	c #BEBBBB",
";	c #D7D1D1",
">	c #DBD5D5",
",	c #575757",
"'	c #B7AEAE",
")	c #B0A7A7",
"!	c #AEA5A5",
"~	c #ACA3A3",
"{	c #767676",
"]	c #848284",
"^	c #5F5F5F",
"/	c #000000",
"                ",
"     ..    +    ",
"    .@.     +   ",
"   .@@.  +   +  ",
" ...@#.   +  +  ",
" .$%&@.*  +  +  ",
" .=-;>.,  +  +  ",
" ...').   +  +  ",
"   .!~.  {   +  ",
"    .~.     +   ",
"     ..    +    ",
"                ",
"                ",
"        ]^ ]^ ]^",
"        ^/ ^/ ^/",
"                "};
